<?xml version="1.0" encoding="utf-8" standalone="no"?>
<!DOCTYPE svg PUBLIC "-//W3C//DTD SVG 1.1//EN"
  "http://www.w3.org/Graphics/SVG/1.1/DTD/svg11.dtd">
<svg height="720pt" version="1.1" viewBox="0 0 1152 720" width="1152pt" xmlns="http://www.w3.org/2000/svg" xmlns:xlink="http://www.w3.org/1999/xlink">
 <metadata>
  <rdf:RDF xmlns:cc="http://creativecommons.org/ns#" xmlns:dc="http://purl.org/dc/elements/1.1/" xmlns:rdf="http://www.w3.org/1999/02/22-rdf-syntax-ns#">
   <cc:Work>
    <dc:type rdf:resource="http://purl.org/dc/dcmitype/StillImage"/>
    <dc:date>2024-05-15T14:01:14.030293</dc:date>
    <dc:format>image/svg+xml</dc:format>
    <dc:creator>
     <cc:Agent>
      <dc:title>Matplotlib v3.4.3, https://matplotlib.org/</dc:title>
     </cc:Agent>
    </dc:creator>
   </cc:Work>
  </rdf:RDF>
 </metadata>
 <defs>
  <style type="text/css">*{stroke-linecap:butt;stroke-linejoin:round;}</style>
 </defs>
 <g id="figure_1">
  <g id="patch_1">
   <path d="M 0 720 
L 1152 720 
L 1152 0 
L 0 0 
z
" style="fill:#ffffff;"/>
  </g>
  <g id="axes_1">
   <g id="patch_2">
    <path d="M 144 640.8 
L 1036.8 640.8 
L 1036.8 86.4 
L 144 86.4 
z
" style="fill:#ffffff;"/>
   </g>
   <g id="PathCollection_1">
    <defs>
     <path d="M 0 3 
C 0.795609 3 1.55874 2.683901 2.12132 2.12132 
C 2.683901 1.55874 3 0.795609 3 0 
C 3 -0.795609 2.683901 -1.55874 2.12132 -2.12132 
C 1.55874 -2.683901 0.795609 -3 0 -3 
C -0.795609 -3 -1.55874 -2.683901 -2.12132 -2.12132 
C -2.683901 -1.55874 -3 -0.795609 -3 0 
C -3 0.795609 -2.683901 1.55874 -2.12132 2.12132 
C -1.55874 2.683901 -0.795609 3 0 3 
z
" id="m51822da874" style="stroke:#1f77b4;"/>
    </defs>
    <g clip-path="url(#pfc425c706d)">
     <use style="fill:#1f77b4;stroke:#1f77b4;" x="496.463705" xlink:href="#m51822da874" y="210.4272"/>
    </g>
   </g>
   <g id="PathCollection_2">
    <defs>
     <path d="M 0 3 
C 0.795609 3 1.55874 2.683901 2.12132 2.12132 
C 2.683901 1.55874 3 0.795609 3 0 
C 3 -0.795609 2.683901 -1.55874 2.12132 -2.12132 
C 1.55874 -2.683901 0.795609 -3 0 -3 
C -0.795609 -3 -1.55874 -2.683901 -2.12132 -2.12132 
C -2.683901 -1.55874 -3 -0.795609 -3 0 
C -3 0.795609 -2.683901 1.55874 -2.12132 2.12132 
C -1.55874 2.683901 -0.795609 3 0 3 
z
" id="mccdd507697" style="stroke:#008000;"/>
    </defs>
    <g clip-path="url(#pfc425c706d)">
     <use style="fill:#008000;stroke:#008000;" x="496.463705" xlink:href="#mccdd507697" y="640.8"/>
    </g>
   </g>
   <g id="PathCollection_3">
    <g clip-path="url(#pfc425c706d)">
     <use style="fill:#008000;stroke:#008000;" x="144" xlink:href="#mccdd507697" y="210.4272"/>
    </g>
   </g>
   <g id="matplotlib.axis_1">
    <g id="xtick_1">
     <g id="line2d_1">
      <path clip-path="url(#pfc425c706d)" d="M 144 640.8 
L 144 86.4 
" style="fill:none;stroke:#0000ff;stroke-dasharray:1,1.65;stroke-dashoffset:0;"/>
     </g>
     <g id="line2d_2">
      <defs>
       <path d="M 0 0 
L 0 3.5 
" id="m2460b372fb" style="stroke:#000000;stroke-width:0.8;"/>
      </defs>
      <g>
       <use style="stroke:#000000;stroke-width:0.8;" x="144" xlink:href="#m2460b372fb" y="640.8"/>
      </g>
     </g>
     <g id="text_1">
      <!-- 0 -->
      <g transform="translate(140.81875 655.398438)scale(0.1 -0.1)">
       <defs>
        <path d="M 2034 4250 
Q 1547 4250 1301 3770 
Q 1056 3291 1056 2328 
Q 1056 1369 1301 889 
Q 1547 409 2034 409 
Q 2525 409 2770 889 
Q 3016 1369 3016 2328 
Q 3016 3291 2770 3770 
Q 2525 4250 2034 4250 
z
M 2034 4750 
Q 2819 4750 3233 4129 
Q 3647 3509 3647 2328 
Q 3647 1150 3233 529 
Q 2819 -91 2034 -91 
Q 1250 -91 836 529 
Q 422 1150 422 2328 
Q 422 3509 836 4129 
Q 1250 4750 2034 4750 
z
" id="DejaVuSans-30" transform="scale(0.015625)"/>
       </defs>
       <use xlink:href="#DejaVuSans-30"/>
      </g>
     </g>
    </g>
    <g id="xtick_2">
     <g id="line2d_3">
      <path clip-path="url(#pfc425c706d)" d="M 212.676923 640.8 
L 212.676923 86.4 
" style="fill:none;stroke:#0000ff;stroke-dasharray:1,1.65;stroke-dashoffset:0;"/>
     </g>
     <g id="line2d_4">
      <g>
       <use style="stroke:#000000;stroke-width:0.8;" x="212.676923" xlink:href="#m2460b372fb" y="640.8"/>
      </g>
     </g>
     <g id="text_2">
      <!-- 1 -->
      <g transform="translate(209.495673 655.398438)scale(0.1 -0.1)">
       <defs>
        <path d="M 794 531 
L 1825 531 
L 1825 4091 
L 703 3866 
L 703 4441 
L 1819 4666 
L 2450 4666 
L 2450 531 
L 3481 531 
L 3481 0 
L 794 0 
L 794 531 
z
" id="DejaVuSans-31" transform="scale(0.015625)"/>
       </defs>
       <use xlink:href="#DejaVuSans-31"/>
      </g>
     </g>
    </g>
    <g id="xtick_3">
     <g id="line2d_5">
      <path clip-path="url(#pfc425c706d)" d="M 281.353846 640.8 
L 281.353846 86.4 
" style="fill:none;stroke:#0000ff;stroke-dasharray:1,1.65;stroke-dashoffset:0;"/>
     </g>
     <g id="line2d_6">
      <g>
       <use style="stroke:#000000;stroke-width:0.8;" x="281.353846" xlink:href="#m2460b372fb" y="640.8"/>
      </g>
     </g>
     <g id="text_3">
      <!-- 2 -->
      <g transform="translate(278.172596 655.398438)scale(0.1 -0.1)">
       <defs>
        <path d="M 1228 531 
L 3431 531 
L 3431 0 
L 469 0 
L 469 531 
Q 828 903 1448 1529 
Q 2069 2156 2228 2338 
Q 2531 2678 2651 2914 
Q 2772 3150 2772 3378 
Q 2772 3750 2511 3984 
Q 2250 4219 1831 4219 
Q 1534 4219 1204 4116 
Q 875 4013 500 3803 
L 500 4441 
Q 881 4594 1212 4672 
Q 1544 4750 1819 4750 
Q 2544 4750 2975 4387 
Q 3406 4025 3406 3419 
Q 3406 3131 3298 2873 
Q 3191 2616 2906 2266 
Q 2828 2175 2409 1742 
Q 1991 1309 1228 531 
z
" id="DejaVuSans-32" transform="scale(0.015625)"/>
       </defs>
       <use xlink:href="#DejaVuSans-32"/>
      </g>
     </g>
    </g>
    <g id="xtick_4">
     <g id="line2d_7">
      <path clip-path="url(#pfc425c706d)" d="M 350.030769 640.8 
L 350.030769 86.4 
" style="fill:none;stroke:#0000ff;stroke-dasharray:1,1.65;stroke-dashoffset:0;"/>
     </g>
     <g id="line2d_8">
      <g>
       <use style="stroke:#000000;stroke-width:0.8;" x="350.030769" xlink:href="#m2460b372fb" y="640.8"/>
      </g>
     </g>
     <g id="text_4">
      <!-- 3 -->
      <g transform="translate(346.849519 655.398438)scale(0.1 -0.1)">
       <defs>
        <path d="M 2597 2516 
Q 3050 2419 3304 2112 
Q 3559 1806 3559 1356 
Q 3559 666 3084 287 
Q 2609 -91 1734 -91 
Q 1441 -91 1130 -33 
Q 819 25 488 141 
L 488 750 
Q 750 597 1062 519 
Q 1375 441 1716 441 
Q 2309 441 2620 675 
Q 2931 909 2931 1356 
Q 2931 1769 2642 2001 
Q 2353 2234 1838 2234 
L 1294 2234 
L 1294 2753 
L 1863 2753 
Q 2328 2753 2575 2939 
Q 2822 3125 2822 3475 
Q 2822 3834 2567 4026 
Q 2313 4219 1838 4219 
Q 1578 4219 1281 4162 
Q 984 4106 628 3988 
L 628 4550 
Q 988 4650 1302 4700 
Q 1616 4750 1894 4750 
Q 2613 4750 3031 4423 
Q 3450 4097 3450 3541 
Q 3450 3153 3228 2886 
Q 3006 2619 2597 2516 
z
" id="DejaVuSans-33" transform="scale(0.015625)"/>
       </defs>
       <use xlink:href="#DejaVuSans-33"/>
      </g>
     </g>
    </g>
    <g id="xtick_5">
     <g id="line2d_9">
      <path clip-path="url(#pfc425c706d)" d="M 418.707692 640.8 
L 418.707692 86.4 
" style="fill:none;stroke:#0000ff;stroke-dasharray:1,1.65;stroke-dashoffset:0;"/>
     </g>
     <g id="line2d_10">
      <g>
       <use style="stroke:#000000;stroke-width:0.8;" x="418.707692" xlink:href="#m2460b372fb" y="640.8"/>
      </g>
     </g>
     <g id="text_5">
      <!-- 4 -->
      <g transform="translate(415.526442 655.398438)scale(0.1 -0.1)">
       <defs>
        <path d="M 2419 4116 
L 825 1625 
L 2419 1625 
L 2419 4116 
z
M 2253 4666 
L 3047 4666 
L 3047 1625 
L 3713 1625 
L 3713 1100 
L 3047 1100 
L 3047 0 
L 2419 0 
L 2419 1100 
L 313 1100 
L 313 1709 
L 2253 4666 
z
" id="DejaVuSans-34" transform="scale(0.015625)"/>
       </defs>
       <use xlink:href="#DejaVuSans-34"/>
      </g>
     </g>
    </g>
    <g id="xtick_6">
     <g id="line2d_11">
      <path clip-path="url(#pfc425c706d)" d="M 487.384615 640.8 
L 487.384615 86.4 
" style="fill:none;stroke:#0000ff;stroke-dasharray:1,1.65;stroke-dashoffset:0;"/>
     </g>
     <g id="line2d_12">
      <g>
       <use style="stroke:#000000;stroke-width:0.8;" x="487.384615" xlink:href="#m2460b372fb" y="640.8"/>
      </g>
     </g>
     <g id="text_6">
      <!-- 5 -->
      <g transform="translate(484.203365 655.398438)scale(0.1 -0.1)">
       <defs>
        <path d="M 691 4666 
L 3169 4666 
L 3169 4134 
L 1269 4134 
L 1269 2991 
Q 1406 3038 1543 3061 
Q 1681 3084 1819 3084 
Q 2600 3084 3056 2656 
Q 3513 2228 3513 1497 
Q 3513 744 3044 326 
Q 2575 -91 1722 -91 
Q 1428 -91 1123 -41 
Q 819 9 494 109 
L 494 744 
Q 775 591 1075 516 
Q 1375 441 1709 441 
Q 2250 441 2565 725 
Q 2881 1009 2881 1497 
Q 2881 1984 2565 2268 
Q 2250 2553 1709 2553 
Q 1456 2553 1204 2497 
Q 953 2441 691 2322 
L 691 4666 
z
" id="DejaVuSans-35" transform="scale(0.015625)"/>
       </defs>
       <use xlink:href="#DejaVuSans-35"/>
      </g>
     </g>
    </g>
    <g id="xtick_7">
     <g id="line2d_13">
      <path clip-path="url(#pfc425c706d)" d="M 556.061538 640.8 
L 556.061538 86.4 
" style="fill:none;stroke:#0000ff;stroke-dasharray:1,1.65;stroke-dashoffset:0;"/>
     </g>
     <g id="line2d_14">
      <g>
       <use style="stroke:#000000;stroke-width:0.8;" x="556.061538" xlink:href="#m2460b372fb" y="640.8"/>
      </g>
     </g>
     <g id="text_7">
      <!-- 6 -->
      <g transform="translate(552.880288 655.398438)scale(0.1 -0.1)">
       <defs>
        <path d="M 2113 2584 
Q 1688 2584 1439 2293 
Q 1191 2003 1191 1497 
Q 1191 994 1439 701 
Q 1688 409 2113 409 
Q 2538 409 2786 701 
Q 3034 994 3034 1497 
Q 3034 2003 2786 2293 
Q 2538 2584 2113 2584 
z
M 3366 4563 
L 3366 3988 
Q 3128 4100 2886 4159 
Q 2644 4219 2406 4219 
Q 1781 4219 1451 3797 
Q 1122 3375 1075 2522 
Q 1259 2794 1537 2939 
Q 1816 3084 2150 3084 
Q 2853 3084 3261 2657 
Q 3669 2231 3669 1497 
Q 3669 778 3244 343 
Q 2819 -91 2113 -91 
Q 1303 -91 875 529 
Q 447 1150 447 2328 
Q 447 3434 972 4092 
Q 1497 4750 2381 4750 
Q 2619 4750 2861 4703 
Q 3103 4656 3366 4563 
z
" id="DejaVuSans-36" transform="scale(0.015625)"/>
       </defs>
       <use xlink:href="#DejaVuSans-36"/>
      </g>
     </g>
    </g>
    <g id="xtick_8">
     <g id="line2d_15">
      <path clip-path="url(#pfc425c706d)" d="M 624.738462 640.8 
L 624.738462 86.4 
" style="fill:none;stroke:#0000ff;stroke-dasharray:1,1.65;stroke-dashoffset:0;"/>
     </g>
     <g id="line2d_16">
      <g>
       <use style="stroke:#000000;stroke-width:0.8;" x="624.738462" xlink:href="#m2460b372fb" y="640.8"/>
      </g>
     </g>
     <g id="text_8">
      <!-- 7 -->
      <g transform="translate(621.557212 655.398438)scale(0.1 -0.1)">
       <defs>
        <path d="M 525 4666 
L 3525 4666 
L 3525 4397 
L 1831 0 
L 1172 0 
L 2766 4134 
L 525 4134 
L 525 4666 
z
" id="DejaVuSans-37" transform="scale(0.015625)"/>
       </defs>
       <use xlink:href="#DejaVuSans-37"/>
      </g>
     </g>
    </g>
    <g id="xtick_9">
     <g id="line2d_17">
      <path clip-path="url(#pfc425c706d)" d="M 693.415385 640.8 
L 693.415385 86.4 
" style="fill:none;stroke:#0000ff;stroke-dasharray:1,1.65;stroke-dashoffset:0;"/>
     </g>
     <g id="line2d_18">
      <g>
       <use style="stroke:#000000;stroke-width:0.8;" x="693.415385" xlink:href="#m2460b372fb" y="640.8"/>
      </g>
     </g>
     <g id="text_9">
      <!-- 8 -->
      <g transform="translate(690.234135 655.398438)scale(0.1 -0.1)">
       <defs>
        <path d="M 2034 2216 
Q 1584 2216 1326 1975 
Q 1069 1734 1069 1313 
Q 1069 891 1326 650 
Q 1584 409 2034 409 
Q 2484 409 2743 651 
Q 3003 894 3003 1313 
Q 3003 1734 2745 1975 
Q 2488 2216 2034 2216 
z
M 1403 2484 
Q 997 2584 770 2862 
Q 544 3141 544 3541 
Q 544 4100 942 4425 
Q 1341 4750 2034 4750 
Q 2731 4750 3128 4425 
Q 3525 4100 3525 3541 
Q 3525 3141 3298 2862 
Q 3072 2584 2669 2484 
Q 3125 2378 3379 2068 
Q 3634 1759 3634 1313 
Q 3634 634 3220 271 
Q 2806 -91 2034 -91 
Q 1263 -91 848 271 
Q 434 634 434 1313 
Q 434 1759 690 2068 
Q 947 2378 1403 2484 
z
M 1172 3481 
Q 1172 3119 1398 2916 
Q 1625 2713 2034 2713 
Q 2441 2713 2670 2916 
Q 2900 3119 2900 3481 
Q 2900 3844 2670 4047 
Q 2441 4250 2034 4250 
Q 1625 4250 1398 4047 
Q 1172 3844 1172 3481 
z
" id="DejaVuSans-38" transform="scale(0.015625)"/>
       </defs>
       <use xlink:href="#DejaVuSans-38"/>
      </g>
     </g>
    </g>
    <g id="xtick_10">
     <g id="line2d_19">
      <path clip-path="url(#pfc425c706d)" d="M 762.092308 640.8 
L 762.092308 86.4 
" style="fill:none;stroke:#0000ff;stroke-dasharray:1,1.65;stroke-dashoffset:0;"/>
     </g>
     <g id="line2d_20">
      <g>
       <use style="stroke:#000000;stroke-width:0.8;" x="762.092308" xlink:href="#m2460b372fb" y="640.8"/>
      </g>
     </g>
     <g id="text_10">
      <!-- 9 -->
      <g transform="translate(758.911058 655.398438)scale(0.1 -0.1)">
       <defs>
        <path d="M 703 97 
L 703 672 
Q 941 559 1184 500 
Q 1428 441 1663 441 
Q 2288 441 2617 861 
Q 2947 1281 2994 2138 
Q 2813 1869 2534 1725 
Q 2256 1581 1919 1581 
Q 1219 1581 811 2004 
Q 403 2428 403 3163 
Q 403 3881 828 4315 
Q 1253 4750 1959 4750 
Q 2769 4750 3195 4129 
Q 3622 3509 3622 2328 
Q 3622 1225 3098 567 
Q 2575 -91 1691 -91 
Q 1453 -91 1209 -44 
Q 966 3 703 97 
z
M 1959 2075 
Q 2384 2075 2632 2365 
Q 2881 2656 2881 3163 
Q 2881 3666 2632 3958 
Q 2384 4250 1959 4250 
Q 1534 4250 1286 3958 
Q 1038 3666 1038 3163 
Q 1038 2656 1286 2365 
Q 1534 2075 1959 2075 
z
" id="DejaVuSans-39" transform="scale(0.015625)"/>
       </defs>
       <use xlink:href="#DejaVuSans-39"/>
      </g>
     </g>
    </g>
    <g id="xtick_11">
     <g id="line2d_21">
      <path clip-path="url(#pfc425c706d)" d="M 830.769231 640.8 
L 830.769231 86.4 
" style="fill:none;stroke:#0000ff;stroke-dasharray:1,1.65;stroke-dashoffset:0;"/>
     </g>
     <g id="line2d_22">
      <g>
       <use style="stroke:#000000;stroke-width:0.8;" x="830.769231" xlink:href="#m2460b372fb" y="640.8"/>
      </g>
     </g>
     <g id="text_11">
      <!-- 10 -->
      <g transform="translate(824.406731 655.398438)scale(0.1 -0.1)">
       <use xlink:href="#DejaVuSans-31"/>
       <use x="63.623047" xlink:href="#DejaVuSans-30"/>
      </g>
     </g>
    </g>
    <g id="xtick_12">
     <g id="line2d_23">
      <path clip-path="url(#pfc425c706d)" d="M 899.446154 640.8 
L 899.446154 86.4 
" style="fill:none;stroke:#0000ff;stroke-dasharray:1,1.65;stroke-dashoffset:0;"/>
     </g>
     <g id="line2d_24">
      <g>
       <use style="stroke:#000000;stroke-width:0.8;" x="899.446154" xlink:href="#m2460b372fb" y="640.8"/>
      </g>
     </g>
     <g id="text_12">
      <!-- 11 -->
      <g transform="translate(893.083654 655.398438)scale(0.1 -0.1)">
       <use xlink:href="#DejaVuSans-31"/>
       <use x="63.623047" xlink:href="#DejaVuSans-31"/>
      </g>
     </g>
    </g>
    <g id="xtick_13">
     <g id="line2d_25">
      <path clip-path="url(#pfc425c706d)" d="M 968.123077 640.8 
L 968.123077 86.4 
" style="fill:none;stroke:#0000ff;stroke-dasharray:1,1.65;stroke-dashoffset:0;"/>
     </g>
     <g id="line2d_26">
      <g>
       <use style="stroke:#000000;stroke-width:0.8;" x="968.123077" xlink:href="#m2460b372fb" y="640.8"/>
      </g>
     </g>
     <g id="text_13">
      <!-- 12 -->
      <g transform="translate(961.760577 655.398438)scale(0.1 -0.1)">
       <use xlink:href="#DejaVuSans-31"/>
       <use x="63.623047" xlink:href="#DejaVuSans-32"/>
      </g>
     </g>
    </g>
    <g id="xtick_14">
     <g id="line2d_27">
      <path clip-path="url(#pfc425c706d)" d="M 1036.8 640.8 
L 1036.8 86.4 
" style="fill:none;stroke:#0000ff;stroke-dasharray:1,1.65;stroke-dashoffset:0;"/>
     </g>
     <g id="line2d_28">
      <g>
       <use style="stroke:#000000;stroke-width:0.8;" x="1036.8" xlink:href="#m2460b372fb" y="640.8"/>
      </g>
     </g>
     <g id="text_14">
      <!-- 13 -->
      <g transform="translate(1030.4375 655.398438)scale(0.1 -0.1)">
       <use xlink:href="#DejaVuSans-31"/>
       <use x="63.623047" xlink:href="#DejaVuSans-33"/>
      </g>
     </g>
    </g>
    <g id="xtick_15">
     <g id="line2d_29">
      <path clip-path="url(#pfc425c706d)" d="M 178.338462 640.8 
L 178.338462 86.4 
" style="fill:none;stroke:#0000ff;stroke-dasharray:0.5,0.825;stroke-dashoffset:0;stroke-width:0.5;"/>
     </g>
     <g id="line2d_30">
      <defs>
       <path d="M 0 0 
L 0 2 
" id="m0972306a5f" style="stroke:#000000;stroke-width:0.6;"/>
      </defs>
      <g>
       <use style="stroke:#000000;stroke-width:0.6;" x="178.338462" xlink:href="#m0972306a5f" y="640.8"/>
      </g>
     </g>
    </g>
    <g id="xtick_16">
     <g id="line2d_31">
      <path clip-path="url(#pfc425c706d)" d="M 247.015385 640.8 
L 247.015385 86.4 
" style="fill:none;stroke:#0000ff;stroke-dasharray:0.5,0.825;stroke-dashoffset:0;stroke-width:0.5;"/>
     </g>
     <g id="line2d_32">
      <g>
       <use style="stroke:#000000;stroke-width:0.6;" x="247.015385" xlink:href="#m0972306a5f" y="640.8"/>
      </g>
     </g>
    </g>
    <g id="xtick_17">
     <g id="line2d_33">
      <path clip-path="url(#pfc425c706d)" d="M 315.692308 640.8 
L 315.692308 86.4 
" style="fill:none;stroke:#0000ff;stroke-dasharray:0.5,0.825;stroke-dashoffset:0;stroke-width:0.5;"/>
     </g>
     <g id="line2d_34">
      <g>
       <use style="stroke:#000000;stroke-width:0.6;" x="315.692308" xlink:href="#m0972306a5f" y="640.8"/>
      </g>
     </g>
    </g>
    <g id="xtick_18">
     <g id="line2d_35">
      <path clip-path="url(#pfc425c706d)" d="M 384.369231 640.8 
L 384.369231 86.4 
" style="fill:none;stroke:#0000ff;stroke-dasharray:0.5,0.825;stroke-dashoffset:0;stroke-width:0.5;"/>
     </g>
     <g id="line2d_36">
      <g>
       <use style="stroke:#000000;stroke-width:0.6;" x="384.369231" xlink:href="#m0972306a5f" y="640.8"/>
      </g>
     </g>
    </g>
    <g id="xtick_19">
     <g id="line2d_37">
      <path clip-path="url(#pfc425c706d)" d="M 453.046154 640.8 
L 453.046154 86.4 
" style="fill:none;stroke:#0000ff;stroke-dasharray:0.5,0.825;stroke-dashoffset:0;stroke-width:0.5;"/>
     </g>
     <g id="line2d_38">
      <g>
       <use style="stroke:#000000;stroke-width:0.6;" x="453.046154" xlink:href="#m0972306a5f" y="640.8"/>
      </g>
     </g>
    </g>
    <g id="xtick_20">
     <g id="line2d_39">
      <path clip-path="url(#pfc425c706d)" d="M 521.723077 640.8 
L 521.723077 86.4 
" style="fill:none;stroke:#0000ff;stroke-dasharray:0.5,0.825;stroke-dashoffset:0;stroke-width:0.5;"/>
     </g>
     <g id="line2d_40">
      <g>
       <use style="stroke:#000000;stroke-width:0.6;" x="521.723077" xlink:href="#m0972306a5f" y="640.8"/>
      </g>
     </g>
    </g>
    <g id="xtick_21">
     <g id="line2d_41">
      <path clip-path="url(#pfc425c706d)" d="M 590.4 640.8 
L 590.4 86.4 
" style="fill:none;stroke:#0000ff;stroke-dasharray:0.5,0.825;stroke-dashoffset:0;stroke-width:0.5;"/>
     </g>
     <g id="line2d_42">
      <g>
       <use style="stroke:#000000;stroke-width:0.6;" x="590.4" xlink:href="#m0972306a5f" y="640.8"/>
      </g>
     </g>
    </g>
    <g id="xtick_22">
     <g id="line2d_43">
      <path clip-path="url(#pfc425c706d)" d="M 659.076923 640.8 
L 659.076923 86.4 
" style="fill:none;stroke:#0000ff;stroke-dasharray:0.5,0.825;stroke-dashoffset:0;stroke-width:0.5;"/>
     </g>
     <g id="line2d_44">
      <g>
       <use style="stroke:#000000;stroke-width:0.6;" x="659.076923" xlink:href="#m0972306a5f" y="640.8"/>
      </g>
     </g>
    </g>
    <g id="xtick_23">
     <g id="line2d_45">
      <path clip-path="url(#pfc425c706d)" d="M 727.753846 640.8 
L 727.753846 86.4 
" style="fill:none;stroke:#0000ff;stroke-dasharray:0.5,0.825;stroke-dashoffset:0;stroke-width:0.5;"/>
     </g>
     <g id="line2d_46">
      <g>
       <use style="stroke:#000000;stroke-width:0.6;" x="727.753846" xlink:href="#m0972306a5f" y="640.8"/>
      </g>
     </g>
    </g>
    <g id="xtick_24">
     <g id="line2d_47">
      <path clip-path="url(#pfc425c706d)" d="M 796.430769 640.8 
L 796.430769 86.4 
" style="fill:none;stroke:#0000ff;stroke-dasharray:0.5,0.825;stroke-dashoffset:0;stroke-width:0.5;"/>
     </g>
     <g id="line2d_48">
      <g>
       <use style="stroke:#000000;stroke-width:0.6;" x="796.430769" xlink:href="#m0972306a5f" y="640.8"/>
      </g>
     </g>
    </g>
    <g id="xtick_25">
     <g id="line2d_49">
      <path clip-path="url(#pfc425c706d)" d="M 865.107692 640.8 
L 865.107692 86.4 
" style="fill:none;stroke:#0000ff;stroke-dasharray:0.5,0.825;stroke-dashoffset:0;stroke-width:0.5;"/>
     </g>
     <g id="line2d_50">
      <g>
       <use style="stroke:#000000;stroke-width:0.6;" x="865.107692" xlink:href="#m0972306a5f" y="640.8"/>
      </g>
     </g>
    </g>
    <g id="xtick_26">
     <g id="line2d_51">
      <path clip-path="url(#pfc425c706d)" d="M 933.784615 640.8 
L 933.784615 86.4 
" style="fill:none;stroke:#0000ff;stroke-dasharray:0.5,0.825;stroke-dashoffset:0;stroke-width:0.5;"/>
     </g>
     <g id="line2d_52">
      <g>
       <use style="stroke:#000000;stroke-width:0.6;" x="933.784615" xlink:href="#m0972306a5f" y="640.8"/>
      </g>
     </g>
    </g>
    <g id="xtick_27">
     <g id="line2d_53">
      <path clip-path="url(#pfc425c706d)" d="M 1002.461538 640.8 
L 1002.461538 86.4 
" style="fill:none;stroke:#0000ff;stroke-dasharray:0.5,0.825;stroke-dashoffset:0;stroke-width:0.5;"/>
     </g>
     <g id="line2d_54">
      <g>
       <use style="stroke:#000000;stroke-width:0.6;" x="1002.461538" xlink:href="#m0972306a5f" y="640.8"/>
      </g>
     </g>
    </g>
    <g id="text_15">
     <!-- Время, с -->
     <g transform="translate(568.011719 669.076563)scale(0.1 -0.1)">
      <defs>
       <path d="M 1259 2228 
L 1259 519 
L 2272 519 
Q 2781 519 3026 730 
Q 3272 941 3272 1375 
Q 3272 1813 3026 2020 
Q 2781 2228 2272 2228 
L 1259 2228 
z
M 1259 4147 
L 1259 2741 
L 2194 2741 
Q 2656 2741 2882 2914 
Q 3109 3088 3109 3444 
Q 3109 3797 2882 3972 
Q 2656 4147 2194 4147 
L 1259 4147 
z
M 628 4666 
L 2241 4666 
Q 2963 4666 3353 4366 
Q 3744 4066 3744 3513 
Q 3744 3084 3544 2831 
Q 3344 2578 2956 2516 
Q 3422 2416 3680 2098 
Q 3938 1781 3938 1306 
Q 3938 681 3513 340 
Q 3088 0 2303 0 
L 628 0 
L 628 4666 
z
" id="DejaVuSans-412" transform="scale(0.015625)"/>
       <path d="M 1159 525 
L 1159 -1331 
L 581 -1331 
L 581 3500 
L 1159 3500 
L 1159 2969 
Q 1341 3281 1617 3432 
Q 1894 3584 2278 3584 
Q 2916 3584 3314 3078 
Q 3713 2572 3713 1747 
Q 3713 922 3314 415 
Q 2916 -91 2278 -91 
Q 1894 -91 1617 61 
Q 1341 213 1159 525 
z
M 3116 1747 
Q 3116 2381 2855 2742 
Q 2594 3103 2138 3103 
Q 1681 3103 1420 2742 
Q 1159 2381 1159 1747 
Q 1159 1113 1420 752 
Q 1681 391 2138 391 
Q 2594 391 2855 752 
Q 3116 1113 3116 1747 
z
" id="DejaVuSans-440" transform="scale(0.015625)"/>
       <path d="M 3597 1894 
L 3597 1613 
L 953 1613 
Q 991 1019 1311 708 
Q 1631 397 2203 397 
Q 2534 397 2845 478 
Q 3156 559 3463 722 
L 3463 178 
Q 3153 47 2828 -22 
Q 2503 -91 2169 -91 
Q 1331 -91 842 396 
Q 353 884 353 1716 
Q 353 2575 817 3079 
Q 1281 3584 2069 3584 
Q 2775 3584 3186 3129 
Q 3597 2675 3597 1894 
z
M 3022 2063 
Q 3016 2534 2758 2815 
Q 2500 3097 2075 3097 
Q 1594 3097 1305 2825 
Q 1016 2553 972 2059 
L 3022 2063 
z
" id="DejaVuSans-435" transform="scale(0.015625)"/>
       <path d="M 581 3500 
L 1422 3500 
L 2416 1156 
L 3413 3500 
L 4247 3500 
L 4247 0 
L 3669 0 
L 3669 2950 
L 2703 672 
L 2128 672 
L 1159 2950 
L 1159 0 
L 581 0 
L 581 3500 
z
" id="DejaVuSans-43c" transform="scale(0.015625)"/>
       <path d="M 1181 2491 
Q 1181 2231 1381 2084 
Q 1581 1938 1953 1938 
L 2728 1938 
L 2728 3041 
L 1953 3041 
Q 1581 3041 1381 2897 
Q 1181 2753 1181 2491 
z
M 363 0 
L 1431 1534 
Q 1069 1616 828 1830 
Q 588 2044 588 2491 
Q 588 2997 923 3248 
Q 1259 3500 1938 3500 
L 3306 3500 
L 3306 0 
L 2728 0 
L 2728 1478 
L 2013 1478 
L 981 0 
L 363 0 
z
" id="DejaVuSans-44f" transform="scale(0.015625)"/>
       <path d="M 750 794 
L 1409 794 
L 1409 256 
L 897 -744 
L 494 -744 
L 750 256 
L 750 794 
z
" id="DejaVuSans-2c" transform="scale(0.015625)"/>
       <path id="DejaVuSans-20" transform="scale(0.015625)"/>
       <path d="M 3122 3366 
L 3122 2828 
Q 2878 2963 2633 3030 
Q 2388 3097 2138 3097 
Q 1578 3097 1268 2742 
Q 959 2388 959 1747 
Q 959 1106 1268 751 
Q 1578 397 2138 397 
Q 2388 397 2633 464 
Q 2878 531 3122 666 
L 3122 134 
Q 2881 22 2623 -34 
Q 2366 -91 2075 -91 
Q 1284 -91 818 406 
Q 353 903 353 1747 
Q 353 2603 823 3093 
Q 1294 3584 2113 3584 
Q 2378 3584 2631 3529 
Q 2884 3475 3122 3366 
z
" id="DejaVuSans-441" transform="scale(0.015625)"/>
      </defs>
      <use xlink:href="#DejaVuSans-412"/>
      <use x="68.603516" xlink:href="#DejaVuSans-440"/>
      <use x="132.080078" xlink:href="#DejaVuSans-435"/>
      <use x="193.603516" xlink:href="#DejaVuSans-43c"/>
      <use x="269.042969" xlink:href="#DejaVuSans-44f"/>
      <use x="329.199219" xlink:href="#DejaVuSans-2c"/>
      <use x="360.986328" xlink:href="#DejaVuSans-20"/>
      <use x="392.773438" xlink:href="#DejaVuSans-441"/>
     </g>
    </g>
   </g>
   <g id="matplotlib.axis_2">
    <g id="ytick_1">
     <g id="line2d_55">
      <path clip-path="url(#pfc425c706d)" d="M 144 640.8 
L 1036.8 640.8 
" style="fill:none;stroke:#0000ff;stroke-dasharray:1,1.65;stroke-dashoffset:0;"/>
     </g>
     <g id="line2d_56">
      <defs>
       <path d="M 0 0 
L -3.5 0 
" id="m7dc6c0c797" style="stroke:#000000;stroke-width:0.8;"/>
      </defs>
      <g>
       <use style="stroke:#000000;stroke-width:0.8;" x="144" xlink:href="#m7dc6c0c797" y="640.8"/>
      </g>
     </g>
     <g id="text_16">
      <!-- 0.0 -->
      <g transform="translate(121.096875 644.599219)scale(0.1 -0.1)">
       <defs>
        <path d="M 684 794 
L 1344 794 
L 1344 0 
L 684 0 
L 684 794 
z
" id="DejaVuSans-2e" transform="scale(0.015625)"/>
       </defs>
       <use xlink:href="#DejaVuSans-30"/>
       <use x="63.623047" xlink:href="#DejaVuSans-2e"/>
       <use x="95.410156" xlink:href="#DejaVuSans-30"/>
      </g>
     </g>
    </g>
    <g id="ytick_2">
     <g id="line2d_57">
      <path clip-path="url(#pfc425c706d)" d="M 144 561.6 
L 1036.8 561.6 
" style="fill:none;stroke:#0000ff;stroke-dasharray:1,1.65;stroke-dashoffset:0;"/>
     </g>
     <g id="line2d_58">
      <g>
       <use style="stroke:#000000;stroke-width:0.8;" x="144" xlink:href="#m7dc6c0c797" y="561.6"/>
      </g>
     </g>
     <g id="text_17">
      <!-- 0.5 -->
      <g transform="translate(121.096875 565.399219)scale(0.1 -0.1)">
       <use xlink:href="#DejaVuSans-30"/>
       <use x="63.623047" xlink:href="#DejaVuSans-2e"/>
       <use x="95.410156" xlink:href="#DejaVuSans-35"/>
      </g>
     </g>
    </g>
    <g id="ytick_3">
     <g id="line2d_59">
      <path clip-path="url(#pfc425c706d)" d="M 144 482.4 
L 1036.8 482.4 
" style="fill:none;stroke:#0000ff;stroke-dasharray:1,1.65;stroke-dashoffset:0;"/>
     </g>
     <g id="line2d_60">
      <g>
       <use style="stroke:#000000;stroke-width:0.8;" x="144" xlink:href="#m7dc6c0c797" y="482.4"/>
      </g>
     </g>
     <g id="text_18">
      <!-- 1.0 -->
      <g transform="translate(121.096875 486.199219)scale(0.1 -0.1)">
       <use xlink:href="#DejaVuSans-31"/>
       <use x="63.623047" xlink:href="#DejaVuSans-2e"/>
       <use x="95.410156" xlink:href="#DejaVuSans-30"/>
      </g>
     </g>
    </g>
    <g id="ytick_4">
     <g id="line2d_61">
      <path clip-path="url(#pfc425c706d)" d="M 144 403.2 
L 1036.8 403.2 
" style="fill:none;stroke:#0000ff;stroke-dasharray:1,1.65;stroke-dashoffset:0;"/>
     </g>
     <g id="line2d_62">
      <g>
       <use style="stroke:#000000;stroke-width:0.8;" x="144" xlink:href="#m7dc6c0c797" y="403.2"/>
      </g>
     </g>
     <g id="text_19">
      <!-- 1.5 -->
      <g transform="translate(121.096875 406.999219)scale(0.1 -0.1)">
       <use xlink:href="#DejaVuSans-31"/>
       <use x="63.623047" xlink:href="#DejaVuSans-2e"/>
       <use x="95.410156" xlink:href="#DejaVuSans-35"/>
      </g>
     </g>
    </g>
    <g id="ytick_5">
     <g id="line2d_63">
      <path clip-path="url(#pfc425c706d)" d="M 144 324 
L 1036.8 324 
" style="fill:none;stroke:#0000ff;stroke-dasharray:1,1.65;stroke-dashoffset:0;"/>
     </g>
     <g id="line2d_64">
      <g>
       <use style="stroke:#000000;stroke-width:0.8;" x="144" xlink:href="#m7dc6c0c797" y="324"/>
      </g>
     </g>
     <g id="text_20">
      <!-- 2.0 -->
      <g transform="translate(121.096875 327.799219)scale(0.1 -0.1)">
       <use xlink:href="#DejaVuSans-32"/>
       <use x="63.623047" xlink:href="#DejaVuSans-2e"/>
       <use x="95.410156" xlink:href="#DejaVuSans-30"/>
      </g>
     </g>
    </g>
    <g id="ytick_6">
     <g id="line2d_65">
      <path clip-path="url(#pfc425c706d)" d="M 144 244.8 
L 1036.8 244.8 
" style="fill:none;stroke:#0000ff;stroke-dasharray:1,1.65;stroke-dashoffset:0;"/>
     </g>
     <g id="line2d_66">
      <g>
       <use style="stroke:#000000;stroke-width:0.8;" x="144" xlink:href="#m7dc6c0c797" y="244.8"/>
      </g>
     </g>
     <g id="text_21">
      <!-- 2.5 -->
      <g transform="translate(121.096875 248.599219)scale(0.1 -0.1)">
       <use xlink:href="#DejaVuSans-32"/>
       <use x="63.623047" xlink:href="#DejaVuSans-2e"/>
       <use x="95.410156" xlink:href="#DejaVuSans-35"/>
      </g>
     </g>
    </g>
    <g id="ytick_7">
     <g id="line2d_67">
      <path clip-path="url(#pfc425c706d)" d="M 144 165.6 
L 1036.8 165.6 
" style="fill:none;stroke:#0000ff;stroke-dasharray:1,1.65;stroke-dashoffset:0;"/>
     </g>
     <g id="line2d_68">
      <g>
       <use style="stroke:#000000;stroke-width:0.8;" x="144" xlink:href="#m7dc6c0c797" y="165.6"/>
      </g>
     </g>
     <g id="text_22">
      <!-- 3.0 -->
      <g transform="translate(121.096875 169.399219)scale(0.1 -0.1)">
       <use xlink:href="#DejaVuSans-33"/>
       <use x="63.623047" xlink:href="#DejaVuSans-2e"/>
       <use x="95.410156" xlink:href="#DejaVuSans-30"/>
      </g>
     </g>
    </g>
    <g id="ytick_8">
     <g id="line2d_69">
      <path clip-path="url(#pfc425c706d)" d="M 144 86.4 
L 1036.8 86.4 
" style="fill:none;stroke:#0000ff;stroke-dasharray:1,1.65;stroke-dashoffset:0;"/>
     </g>
     <g id="line2d_70">
      <g>
       <use style="stroke:#000000;stroke-width:0.8;" x="144" xlink:href="#m7dc6c0c797" y="86.4"/>
      </g>
     </g>
     <g id="text_23">
      <!-- 3.5 -->
      <g transform="translate(121.096875 90.199219)scale(0.1 -0.1)">
       <use xlink:href="#DejaVuSans-33"/>
       <use x="63.623047" xlink:href="#DejaVuSans-2e"/>
       <use x="95.410156" xlink:href="#DejaVuSans-35"/>
      </g>
     </g>
    </g>
    <g id="ytick_9">
     <g id="line2d_71">
      <path clip-path="url(#pfc425c706d)" d="M 144 601.2 
L 1036.8 601.2 
" style="fill:none;stroke:#0000ff;stroke-dasharray:0.5,0.825;stroke-dashoffset:0;stroke-width:0.5;"/>
     </g>
     <g id="line2d_72">
      <defs>
       <path d="M 0 0 
L -2 0 
" id="m480671dd44" style="stroke:#000000;stroke-width:0.6;"/>
      </defs>
      <g>
       <use style="stroke:#000000;stroke-width:0.6;" x="144" xlink:href="#m480671dd44" y="601.2"/>
      </g>
     </g>
    </g>
    <g id="ytick_10">
     <g id="line2d_73">
      <path clip-path="url(#pfc425c706d)" d="M 144 522 
L 1036.8 522 
" style="fill:none;stroke:#0000ff;stroke-dasharray:0.5,0.825;stroke-dashoffset:0;stroke-width:0.5;"/>
     </g>
     <g id="line2d_74">
      <g>
       <use style="stroke:#000000;stroke-width:0.6;" x="144" xlink:href="#m480671dd44" y="522"/>
      </g>
     </g>
    </g>
    <g id="ytick_11">
     <g id="line2d_75">
      <path clip-path="url(#pfc425c706d)" d="M 144 442.8 
L 1036.8 442.8 
" style="fill:none;stroke:#0000ff;stroke-dasharray:0.5,0.825;stroke-dashoffset:0;stroke-width:0.5;"/>
     </g>
     <g id="line2d_76">
      <g>
       <use style="stroke:#000000;stroke-width:0.6;" x="144" xlink:href="#m480671dd44" y="442.8"/>
      </g>
     </g>
    </g>
    <g id="ytick_12">
     <g id="line2d_77">
      <path clip-path="url(#pfc425c706d)" d="M 144 363.6 
L 1036.8 363.6 
" style="fill:none;stroke:#0000ff;stroke-dasharray:0.5,0.825;stroke-dashoffset:0;stroke-width:0.5;"/>
     </g>
     <g id="line2d_78">
      <g>
       <use style="stroke:#000000;stroke-width:0.6;" x="144" xlink:href="#m480671dd44" y="363.6"/>
      </g>
     </g>
    </g>
    <g id="ytick_13">
     <g id="line2d_79">
      <path clip-path="url(#pfc425c706d)" d="M 144 284.4 
L 1036.8 284.4 
" style="fill:none;stroke:#0000ff;stroke-dasharray:0.5,0.825;stroke-dashoffset:0;stroke-width:0.5;"/>
     </g>
     <g id="line2d_80">
      <g>
       <use style="stroke:#000000;stroke-width:0.6;" x="144" xlink:href="#m480671dd44" y="284.4"/>
      </g>
     </g>
    </g>
    <g id="ytick_14">
     <g id="line2d_81">
      <path clip-path="url(#pfc425c706d)" d="M 144 205.2 
L 1036.8 205.2 
" style="fill:none;stroke:#0000ff;stroke-dasharray:0.5,0.825;stroke-dashoffset:0;stroke-width:0.5;"/>
     </g>
     <g id="line2d_82">
      <g>
       <use style="stroke:#000000;stroke-width:0.6;" x="144" xlink:href="#m480671dd44" y="205.2"/>
      </g>
     </g>
    </g>
    <g id="ytick_15">
     <g id="line2d_83">
      <path clip-path="url(#pfc425c706d)" d="M 144 126 
L 1036.8 126 
" style="fill:none;stroke:#0000ff;stroke-dasharray:0.5,0.825;stroke-dashoffset:0;stroke-width:0.5;"/>
     </g>
     <g id="line2d_84">
      <g>
       <use style="stroke:#000000;stroke-width:0.6;" x="144" xlink:href="#m480671dd44" y="126"/>
      </g>
     </g>
    </g>
    <g id="text_24">
     <!-- Напряжение, В -->
     <g transform="translate(115.017187 403.659375)rotate(-90)scale(0.1 -0.1)">
      <defs>
       <path d="M 628 4666 
L 1259 4666 
L 1259 2753 
L 3553 2753 
L 3553 4666 
L 4184 4666 
L 4184 0 
L 3553 0 
L 3553 2222 
L 1259 2222 
L 1259 0 
L 628 0 
L 628 4666 
z
" id="DejaVuSans-41d" transform="scale(0.015625)"/>
       <path d="M 2194 1759 
Q 1497 1759 1228 1600 
Q 959 1441 959 1056 
Q 959 750 1161 570 
Q 1363 391 1709 391 
Q 2188 391 2477 730 
Q 2766 1069 2766 1631 
L 2766 1759 
L 2194 1759 
z
M 3341 1997 
L 3341 0 
L 2766 0 
L 2766 531 
Q 2569 213 2275 61 
Q 1981 -91 1556 -91 
Q 1019 -91 701 211 
Q 384 513 384 1019 
Q 384 1609 779 1909 
Q 1175 2209 1959 2209 
L 2766 2209 
L 2766 2266 
Q 2766 2663 2505 2880 
Q 2244 3097 1772 3097 
Q 1472 3097 1187 3025 
Q 903 2953 641 2809 
L 641 3341 
Q 956 3463 1253 3523 
Q 1550 3584 1831 3584 
Q 2591 3584 2966 3190 
Q 3341 2797 3341 1997 
z
" id="DejaVuSans-430" transform="scale(0.015625)"/>
       <path d="M 3603 3500 
L 3603 0 
L 3025 0 
L 3025 3041 
L 1159 3041 
L 1159 0 
L 581 0 
L 581 3500 
L 3603 3500 
z
" id="DejaVuSans-43f" transform="scale(0.015625)"/>
       <path d="M 2597 3500 
L 3169 3500 
L 3169 1856 
L 4697 3500 
L 5366 3500 
L 4109 2153 
L 5547 0 
L 4931 0 
L 3753 1769 
L 3169 1141 
L 3169 0 
L 2597 0 
L 2597 1141 
L 2013 1769 
L 834 0 
L 219 0 
L 1656 2153 
L 400 3500 
L 1069 3500 
L 2597 1856 
L 2597 3500 
z
" id="DejaVuSans-436" transform="scale(0.015625)"/>
       <path d="M 581 3500 
L 1159 3500 
L 1159 2072 
L 3025 2072 
L 3025 3500 
L 3603 3500 
L 3603 0 
L 3025 0 
L 3025 1613 
L 1159 1613 
L 1159 0 
L 581 0 
L 581 3500 
z
" id="DejaVuSans-43d" transform="scale(0.015625)"/>
       <path d="M 3578 3500 
L 3578 0 
L 3006 0 
L 3006 2809 
L 1319 0 
L 581 0 
L 581 3500 
L 1153 3500 
L 1153 697 
L 2838 3500 
L 3578 3500 
z
" id="DejaVuSans-438" transform="scale(0.015625)"/>
      </defs>
      <use xlink:href="#DejaVuSans-41d"/>
      <use x="75.195312" xlink:href="#DejaVuSans-430"/>
      <use x="136.474609" xlink:href="#DejaVuSans-43f"/>
      <use x="201.855469" xlink:href="#DejaVuSans-440"/>
      <use x="265.332031" xlink:href="#DejaVuSans-44f"/>
      <use x="325.488281" xlink:href="#DejaVuSans-436"/>
      <use x="415.576172" xlink:href="#DejaVuSans-435"/>
      <use x="477.099609" xlink:href="#DejaVuSans-43d"/>
      <use x="542.480469" xlink:href="#DejaVuSans-438"/>
      <use x="607.470703" xlink:href="#DejaVuSans-435"/>
      <use x="668.994141" xlink:href="#DejaVuSans-2c"/>
      <use x="700.78125" xlink:href="#DejaVuSans-20"/>
      <use x="732.568359" xlink:href="#DejaVuSans-412"/>
     </g>
    </g>
   </g>
   <g id="line2d_85">
    <path clip-path="url(#pfc425c706d)" d="M 144 639.0576 
L 144.920271 632.088 
L 147.681083 621.6336 
L 148.601354 614.664 
L 150.441895 607.6944 
L 151.362166 600.7248 
L 152.282437 600.7248 
L 153.202708 593.7552 
L 154.122978 593.7552 
L 155.043249 586.7856 
L 155.96352 586.7856 
L 156.883791 576.3312 
L 168.847311 531.0288 
L 169.767582 531.0288 
L 170.687852 524.0592 
L 174.368935 510.12 
L 175.289206 510.12 
L 176.209477 503.1504 
L 177.129748 503.1504 
L 184.491914 475.272 
L 185.412185 475.272 
L 189.093268 461.3328 
L 190.013538 461.3328 
L 193.694622 447.3936 
L 194.614892 447.3936 
L 196.455434 440.424 
L 197.375705 440.424 
L 199.216246 433.4544 
L 200.136517 433.4544 
L 201.977058 426.4848 
L 202.897329 426.4848 
L 204.737871 419.5152 
L 206.578412 419.5152 
L 207.498683 412.5456 
L 208.418954 412.5456 
L 209.339225 409.0608 
L 210.259495 409.0608 
L 212.100037 402.0912 
L 213.020308 402.0912 
L 213.940578 398.6064 
L 214.860849 398.6064 
L 216.701391 391.6368 
L 218.541932 391.6368 
L 220.382474 384.6672 
L 222.223015 384.6672 
L 224.063557 377.6976 
L 224.983828 377.6976 
L 225.904098 374.2128 
L 226.824369 374.2128 
L 227.74464 370.728 
L 228.664911 370.728 
L 229.585182 367.2432 
L 230.505452 367.2432 
L 231.425723 363.7584 
L 234.186535 363.7584 
L 235.106806 356.7888 
L 236.947348 356.7888 
L 237.867618 353.304 
L 238.787889 353.304 
L 239.70816 349.8192 
L 241.548702 349.8192 
L 242.468972 346.3344 
L 243.389243 346.3344 
L 244.309514 342.8496 
L 245.229785 342.8496 
L 246.150055 339.3648 
L 248.910868 339.3648 
L 250.751409 332.3952 
L 252.591951 332.3952 
L 253.512222 328.9104 
L 255.352763 328.9104 
L 256.273034 325.4256 
L 257.193305 325.4256 
L 258.113575 321.9408 
L 260.874388 321.9408 
L 261.794658 318.456 
L 262.714929 318.456 
L 263.6352 314.9712 
L 265.475742 314.9712 
L 266.396012 311.4864 
L 269.156825 311.4864 
L 270.997366 304.5168 
L 276.518991 304.5168 
L 278.359532 297.5472 
L 282.040615 297.5472 
L 282.960886 294.0624 
L 285.721698 294.0624 
L 286.641969 290.5776 
L 288.482511 290.5776 
L 289.402782 287.0928 
L 291.243323 287.0928 
L 292.163594 283.608 
L 295.844677 283.608 
L 296.764948 280.1232 
L 300.446031 280.1232 
L 301.366302 276.6384 
L 305.047385 276.6384 
L 305.967655 273.1536 
L 309.648738 273.1536 
L 310.569009 269.6688 
L 312.409551 269.6688 
L 313.329822 266.184 
L 314.250092 269.6688 
L 315.170363 266.184 
L 317.931175 266.184 
L 318.851446 262.6992 
L 325.293342 262.6992 
L 326.213612 259.2144 
L 330.814966 259.2144 
L 331.735237 255.7296 
L 336.336591 255.7296 
L 337.256862 252.2448 
L 340.937945 252.2448 
L 341.858215 248.76 
L 351.981194 248.76 
L 352.901465 245.2752 
L 360.263631 245.2752 
L 361.183902 241.7904 
L 362.104172 245.2752 
L 363.024443 241.7904 
L 367.625797 241.7904 
L 368.546068 238.3056 
L 369.466338 241.7904 
L 370.386609 238.3056 
L 378.669046 238.3056 
L 379.589317 234.8208 
L 387.871754 234.8208 
L 388.792025 231.336 
L 397.074462 231.336 
L 397.994732 227.8512 
L 398.915003 231.336 
L 399.835274 231.336 
L 400.755545 227.8512 
L 409.037982 227.8512 
L 409.958252 224.3664 
L 410.878523 227.8512 
L 411.798794 227.8512 
L 412.719065 224.3664 
L 413.639335 227.8512 
L 414.559606 227.8512 
L 415.479877 224.3664 
L 422.842043 224.3664 
L 423.762314 220.8816 
L 424.682585 224.3664 
L 425.602855 224.3664 
L 426.523126 220.8816 
L 427.443397 220.8816 
L 428.363668 224.3664 
L 431.12448 224.3664 
L 432.044751 220.8816 
L 449.529895 220.8816 
L 450.450166 217.3968 
L 451.370437 220.8816 
L 452.290708 217.3968 
L 472.536665 217.3968 
L 473.456935 213.912 
L 474.377206 213.912 
L 475.297477 217.3968 
L 476.217748 217.3968 
L 477.138018 213.912 
L 478.058289 213.912 
L 478.97856 217.3968 
L 479.898831 213.912 
L 495.543434 213.912 
L 495.543434 213.912 
" style="fill:none;stroke:#0000ff;stroke-linecap:square;stroke-width:1.5;"/>
   </g>
   <g id="line2d_86">
    <path clip-path="url(#pfc425c706d)" d="M 496.463705 210.4272 
L 497.383975 217.3968 
L 498.304246 220.8816 
L 499.224517 220.8816 
L 500.144788 227.8512 
L 501.985329 234.8208 
L 502.9056 241.7904 
L 503.825871 241.7904 
L 504.746142 248.76 
L 505.666412 248.76 
L 506.586683 255.7296 
L 508.427225 262.6992 
L 509.347495 262.6992 
L 510.267766 269.6688 
L 511.188037 269.6688 
L 520.390745 304.5168 
L 521.311015 304.5168 
L 525.912369 321.9408 
L 526.83264 321.9408 
L 527.752911 328.9104 
L 528.673182 328.9104 
L 529.593452 332.3952 
L 530.513723 332.3952 
L 535.115077 349.8192 
L 536.035348 349.8192 
L 539.716431 363.7584 
L 540.636702 363.7584 
L 542.477243 370.728 
L 543.397514 370.728 
L 544.317785 374.2128 
L 545.238055 374.2128 
L 547.998868 384.6672 
L 548.919138 384.6672 
L 549.839409 388.152 
L 550.75968 388.152 
L 552.600222 395.1216 
L 553.520492 395.1216 
L 555.361034 402.0912 
L 556.281305 402.0912 
L 557.201575 405.576 
L 558.121846 405.576 
L 559.042117 409.0608 
L 559.962388 409.0608 
L 560.882658 412.5456 
L 561.802929 412.5456 
L 562.7232 416.0304 
L 563.643471 416.0304 
L 564.563742 419.5152 
L 565.484012 419.5152 
L 566.404283 423 
L 567.324554 423 
L 569.165095 429.9696 
L 571.005637 429.9696 
L 571.925908 433.4544 
L 572.846178 433.4544 
L 573.766449 436.9392 
L 574.68672 436.9392 
L 576.527262 443.9088 
L 578.367803 443.9088 
L 579.288074 447.3936 
L 580.208345 447.3936 
L 581.128615 450.8784 
L 582.048886 450.8784 
L 582.969157 454.3632 
L 583.889428 454.3632 
L 584.809698 457.848 
L 586.65024 457.848 
L 587.570511 461.3328 
L 588.490782 461.3328 
L 589.411052 464.8176 
L 590.331323 464.8176 
L 591.251594 468.3024 
L 592.171865 468.3024 
L 593.092135 471.7872 
L 595.852948 471.7872 
L 597.693489 478.7568 
L 599.534031 478.7568 
L 600.454302 482.2416 
L 601.374572 482.2416 
L 602.294843 485.7264 
L 605.055655 485.7264 
L 605.975926 489.2112 
L 606.896197 489.2112 
L 607.816468 492.696 
L 609.657009 492.696 
L 610.57728 496.1808 
L 611.497551 496.1808 
L 612.417822 499.6656 
L 614.258363 499.6656 
L 615.178634 503.1504 
L 617.939446 503.1504 
L 618.859717 506.6352 
L 620.700258 506.6352 
L 621.620529 510.12 
L 623.461071 510.12 
L 624.381342 513.6048 
L 627.142154 513.6048 
L 628.062425 517.0896 
L 628.982695 517.0896 
L 629.902966 520.5744 
L 632.663778 520.5744 
L 633.584049 524.0592 
L 635.424591 524.0592 
L 636.344862 527.544 
L 637.265132 527.544 
L 638.185403 531.0288 
L 643.707028 531.0288 
L 644.627298 534.5136 
L 646.46784 534.5136 
L 647.388111 537.9984 
L 649.228652 537.9984 
L 650.148923 541.4832 
L 653.830006 541.4832 
L 654.750277 544.968 
L 657.511089 544.968 
L 658.43136 548.4528 
L 660.271902 548.4528 
L 661.192172 551.9376 
L 664.873255 551.9376 
L 665.793526 555.4224 
L 669.474609 555.4224 
L 670.39488 558.9072 
L 671.315151 555.4224 
L 672.235422 558.9072 
L 674.075963 558.9072 
L 674.996234 562.392 
L 678.677317 562.392 
L 679.597588 565.8768 
L 683.278671 565.8768 
L 684.198942 569.3616 
L 687.880025 569.3616 
L 688.800295 572.8464 
L 694.32192 572.8464 
L 695.242191 576.3312 
L 698.923274 576.3312 
L 699.843545 579.816 
L 703.524628 579.816 
L 704.444898 583.3008 
L 705.365169 579.816 
L 706.28544 583.3008 
L 709.046252 583.3008 
L 709.966523 586.7856 
L 719.169231 586.7856 
L 720.089502 590.2704 
L 726.531397 590.2704 
L 727.451668 593.7552 
L 732.053022 593.7552 
L 732.973292 597.24 
L 741.255729 597.24 
L 742.176 600.7248 
L 751.378708 600.7248 
L 752.298978 604.2096 
L 759.661145 604.2096 
L 760.581415 607.6944 
L 761.501686 604.2096 
L 762.421957 607.6944 
L 772.544935 607.6944 
L 773.465206 611.1792 
L 781.747643 611.1792 
L 782.667914 614.664 
L 797.392246 614.664 
L 798.312517 618.1488 
L 813.036849 618.1488 
L 813.95712 621.6336 
L 814.877391 618.1488 
L 815.797662 621.6336 
L 830.521994 621.6336 
L 831.442265 625.1184 
L 850.767951 625.1184 
L 851.688222 628.6032 
L 852.608492 625.1184 
L 855.369305 625.1184 
L 856.289575 628.6032 
L 857.209846 628.6032 
L 858.130117 625.1184 
L 859.050388 628.6032 
L 877.455803 628.6032 
L 878.376074 632.088 
L 879.296345 628.6032 
L 886.658511 628.6032 
L 887.578782 632.088 
L 889.419323 632.088 
L 890.339594 628.6032 
L 891.259865 632.088 
L 916.107175 632.088 
L 917.027446 635.5728 
L 917.947717 632.088 
L 919.788258 632.088 
L 920.708529 635.5728 
L 968.562609 635.5728 
L 969.48288 639.0576 
L 969.48288 639.0576 
" style="fill:none;stroke:#ff0000;stroke-linecap:square;stroke-width:1.5;"/>
   </g>
   <g id="line2d_87">
    <path clip-path="url(#pfc425c706d)" d="M 496.463705 640.8 
L 496.463705 210.4272 
" style="fill:none;stroke:#1f77b4;stroke-dasharray:5.55,2.4;stroke-dashoffset:0;stroke-width:1.5;"/>
   </g>
   <g id="line2d_88">
    <path clip-path="url(#pfc425c706d)" d="M 144 210.4272 
L 496.463705 210.4272 
" style="fill:none;stroke:#1f77b4;stroke-dasharray:5.55,2.4;stroke-dashoffset:0;stroke-width:1.5;"/>
   </g>
   <g id="patch_3">
    <path d="M 144 640.8 
L 144 86.4 
" style="fill:none;stroke:#000000;stroke-linecap:square;stroke-linejoin:miter;stroke-width:0.8;"/>
   </g>
   <g id="patch_4">
    <path d="M 1036.8 640.8 
L 1036.8 86.4 
" style="fill:none;stroke:#000000;stroke-linecap:square;stroke-linejoin:miter;stroke-width:0.8;"/>
   </g>
   <g id="patch_5">
    <path d="M 144 640.8 
L 1036.8 640.8 
" style="fill:none;stroke:#000000;stroke-linecap:square;stroke-linejoin:miter;stroke-width:0.8;"/>
   </g>
   <g id="patch_6">
    <path d="M 144 86.4 
L 1036.8 86.4 
" style="fill:none;stroke:#000000;stroke-linecap:square;stroke-linejoin:miter;stroke-width:0.8;"/>
   </g>
   <g id="text_25">
    <!-- 5.13 -->
    <g transform="translate(503.331397 632.88)scale(0.12 -0.12)">
     <use xlink:href="#DejaVuSans-35"/>
     <use x="63.623047" xlink:href="#DejaVuSans-2e"/>
     <use x="95.410156" xlink:href="#DejaVuSans-31"/>
     <use x="159.033203" xlink:href="#DejaVuSans-33"/>
    </g>
   </g>
   <g id="text_26">
    <!-- 2.72 -->
    <g transform="translate(150.867692 202.5072)scale(0.12 -0.12)">
     <use xlink:href="#DejaVuSans-32"/>
     <use x="63.623047" xlink:href="#DejaVuSans-2e"/>
     <use x="95.410156" xlink:href="#DejaVuSans-37"/>
     <use x="159.033203" xlink:href="#DejaVuSans-32"/>
    </g>
   </g>
   <g id="text_27">
    <!-- Время зарядки: 5.13 с -->
    <g style="fill:#0000ff;" transform="translate(265.290314 425.6136)scale(0.1 -0.1)">
     <defs>
      <path d="M 2206 1888 
Q 2594 1813 2809 1584 
Q 3025 1356 3025 1019 
Q 3025 478 2622 193 
Q 2219 -91 1475 -91 
Q 1225 -91 961 -47 
Q 697 -3 416 84 
L 416 619 
Q 638 503 903 445 
Q 1169 388 1459 388 
Q 1931 388 2195 563 
Q 2459 738 2459 1019 
Q 2459 1294 2225 1461 
Q 1991 1628 1563 1628 
L 1100 1628 
L 1100 2103 
L 1584 2103 
Q 1947 2103 2158 2242 
Q 2369 2381 2369 2600 
Q 2369 2800 2151 2944 
Q 1934 3088 1563 3088 
Q 1341 3088 1089 3047 
Q 838 3006 534 2916 
L 534 3438 
Q 841 3513 1106 3550 
Q 1372 3588 1609 3588 
Q 2222 3588 2576 3342 
Q 2931 3097 2931 2656 
Q 2931 2366 2743 2164 
Q 2556 1963 2206 1888 
z
" id="DejaVuSans-437" transform="scale(0.015625)"/>
      <path d="M 1384 459 
L 3053 459 
L 3053 3041 
L 1844 3041 
L 1844 2603 
Q 1844 1316 1475 628 
L 1384 459 
z
M 550 459 
Q 834 584 959 850 
Q 1266 1509 1266 2838 
L 1266 3500 
L 3631 3500 
L 3631 459 
L 4091 459 
L 4091 -884 
L 3631 -884 
L 3631 0 
L 794 0 
L 794 -884 
L 334 -884 
L 334 459 
L 550 459 
z
" id="DejaVuSans-434" transform="scale(0.015625)"/>
      <path d="M 581 3500 
L 1153 3500 
L 1153 1856 
L 2775 3500 
L 3481 3500 
L 2144 2147 
L 3653 0 
L 3009 0 
L 1769 1766 
L 1153 1141 
L 1153 0 
L 581 0 
L 581 3500 
z
" id="DejaVuSans-43a" transform="scale(0.015625)"/>
      <path d="M 750 794 
L 1409 794 
L 1409 0 
L 750 0 
L 750 794 
z
M 750 3309 
L 1409 3309 
L 1409 2516 
L 750 2516 
L 750 3309 
z
" id="DejaVuSans-3a" transform="scale(0.015625)"/>
     </defs>
     <use xlink:href="#DejaVuSans-412"/>
     <use x="68.603516" xlink:href="#DejaVuSans-440"/>
     <use x="132.080078" xlink:href="#DejaVuSans-435"/>
     <use x="193.603516" xlink:href="#DejaVuSans-43c"/>
     <use x="269.042969" xlink:href="#DejaVuSans-44f"/>
     <use x="329.199219" xlink:href="#DejaVuSans-20"/>
     <use x="360.986328" xlink:href="#DejaVuSans-437"/>
     <use x="414.160156" xlink:href="#DejaVuSans-430"/>
     <use x="475.439453" xlink:href="#DejaVuSans-440"/>
     <use x="538.916016" xlink:href="#DejaVuSans-44f"/>
     <use x="599.072266" xlink:href="#DejaVuSans-434"/>
     <use x="668.212891" xlink:href="#DejaVuSans-43a"/>
     <use x="728.613281" xlink:href="#DejaVuSans-438"/>
     <use x="793.603516" xlink:href="#DejaVuSans-3a"/>
     <use x="827.294922" xlink:href="#DejaVuSans-20"/>
     <use x="859.082031" xlink:href="#DejaVuSans-35"/>
     <use x="922.705078" xlink:href="#DejaVuSans-2e"/>
     <use x="954.492188" xlink:href="#DejaVuSans-31"/>
     <use x="1018.115234" xlink:href="#DejaVuSans-33"/>
     <use x="1081.738281" xlink:href="#DejaVuSans-20"/>
     <use x="1113.525391" xlink:href="#DejaVuSans-441"/>
    </g>
   </g>
   <g id="text_28">
    <!-- Время разрядки: 6.89 с -->
    <g style="fill:#ff0000;" transform="translate(678.031754 425.6136)scale(0.1 -0.1)">
     <use xlink:href="#DejaVuSans-412"/>
     <use x="68.603516" xlink:href="#DejaVuSans-440"/>
     <use x="132.080078" xlink:href="#DejaVuSans-435"/>
     <use x="193.603516" xlink:href="#DejaVuSans-43c"/>
     <use x="269.042969" xlink:href="#DejaVuSans-44f"/>
     <use x="329.199219" xlink:href="#DejaVuSans-20"/>
     <use x="360.986328" xlink:href="#DejaVuSans-440"/>
     <use x="424.462891" xlink:href="#DejaVuSans-430"/>
     <use x="485.742188" xlink:href="#DejaVuSans-437"/>
     <use x="538.916016" xlink:href="#DejaVuSans-440"/>
     <use x="602.392578" xlink:href="#DejaVuSans-44f"/>
     <use x="662.548828" xlink:href="#DejaVuSans-434"/>
     <use x="731.689453" xlink:href="#DejaVuSans-43a"/>
     <use x="792.089844" xlink:href="#DejaVuSans-438"/>
     <use x="857.080078" xlink:href="#DejaVuSans-3a"/>
     <use x="890.771484" xlink:href="#DejaVuSans-20"/>
     <use x="922.558594" xlink:href="#DejaVuSans-36"/>
     <use x="986.181641" xlink:href="#DejaVuSans-2e"/>
     <use x="1017.96875" xlink:href="#DejaVuSans-38"/>
     <use x="1081.591797" xlink:href="#DejaVuSans-39"/>
     <use x="1145.214844" xlink:href="#DejaVuSans-20"/>
     <use x="1177.001953" xlink:href="#DejaVuSans-441"/>
    </g>
   </g>
   <g id="text_29">
    <!-- Зарядка и разрядка RC-цепи -->
    <g transform="translate(499.02375 80.4)scale(0.12 -0.12)">
     <defs>
      <path d="M 1828 4750 
Q 2597 4750 3084 4423 
Q 3572 4097 3572 3541 
Q 3572 3153 3350 2886 
Q 3128 2619 2719 2516 
Q 3172 2419 3426 2112 
Q 3681 1806 3681 1356 
Q 3681 638 3126 273 
Q 2572 -91 1828 -91 
Q 1447 -91 1003 12 
Q 559 116 422 203 
L 422 853 
Q 900 575 1164 508 
Q 1428 441 1816 441 
Q 2403 441 2728 666 
Q 3053 891 3053 1356 
Q 3053 1769 2764 2001 
Q 2475 2234 1866 2234 
L 1228 2234 
L 1228 2753 
L 1891 2753 
Q 2450 2753 2697 2939 
Q 2944 3125 2944 3475 
Q 2944 3834 2689 4026 
Q 2434 4219 1816 4219 
Q 1397 4219 1253 4181 
Q 1109 4144 469 3903 
L 469 4519 
Q 822 4644 1190 4697 
Q 1559 4750 1828 4750 
z
" id="DejaVuSans-417" transform="scale(0.015625)"/>
      <path d="M 2841 2188 
Q 3044 2119 3236 1894 
Q 3428 1669 3622 1275 
L 4263 0 
L 3584 0 
L 2988 1197 
Q 2756 1666 2539 1819 
Q 2322 1972 1947 1972 
L 1259 1972 
L 1259 0 
L 628 0 
L 628 4666 
L 2053 4666 
Q 2853 4666 3247 4331 
Q 3641 3997 3641 3322 
Q 3641 2881 3436 2590 
Q 3231 2300 2841 2188 
z
M 1259 4147 
L 1259 2491 
L 2053 2491 
Q 2509 2491 2742 2702 
Q 2975 2913 2975 3322 
Q 2975 3731 2742 3939 
Q 2509 4147 2053 4147 
L 1259 4147 
z
" id="DejaVuSans-52" transform="scale(0.015625)"/>
      <path d="M 4122 4306 
L 4122 3641 
Q 3803 3938 3442 4084 
Q 3081 4231 2675 4231 
Q 1875 4231 1450 3742 
Q 1025 3253 1025 2328 
Q 1025 1406 1450 917 
Q 1875 428 2675 428 
Q 3081 428 3442 575 
Q 3803 722 4122 1019 
L 4122 359 
Q 3791 134 3420 21 
Q 3050 -91 2638 -91 
Q 1578 -91 968 557 
Q 359 1206 359 2328 
Q 359 3453 968 4101 
Q 1578 4750 2638 4750 
Q 3056 4750 3426 4639 
Q 3797 4528 4122 4306 
z
" id="DejaVuSans-43" transform="scale(0.015625)"/>
      <path d="M 313 2009 
L 1997 2009 
L 1997 1497 
L 313 1497 
L 313 2009 
z
" id="DejaVuSans-2d" transform="scale(0.015625)"/>
      <path d="M 3603 0 
L 581 0 
L 581 3500 
L 1159 3500 
L 1159 459 
L 3025 459 
L 3025 3500 
L 3603 3500 
L 3603 459 
L 4063 459 
L 4063 -884 
L 3603 -884 
L 3603 0 
z
" id="DejaVuSans-446" transform="scale(0.015625)"/>
     </defs>
     <use xlink:href="#DejaVuSans-417"/>
     <use x="64.111328" xlink:href="#DejaVuSans-430"/>
     <use x="125.390625" xlink:href="#DejaVuSans-440"/>
     <use x="188.867188" xlink:href="#DejaVuSans-44f"/>
     <use x="249.023438" xlink:href="#DejaVuSans-434"/>
     <use x="318.164062" xlink:href="#DejaVuSans-43a"/>
     <use x="378.564453" xlink:href="#DejaVuSans-430"/>
     <use x="439.84375" xlink:href="#DejaVuSans-20"/>
     <use x="471.630859" xlink:href="#DejaVuSans-438"/>
     <use x="536.621094" xlink:href="#DejaVuSans-20"/>
     <use x="568.408203" xlink:href="#DejaVuSans-440"/>
     <use x="631.884766" xlink:href="#DejaVuSans-430"/>
     <use x="693.164062" xlink:href="#DejaVuSans-437"/>
     <use x="746.337891" xlink:href="#DejaVuSans-440"/>
     <use x="809.814453" xlink:href="#DejaVuSans-44f"/>
     <use x="869.970703" xlink:href="#DejaVuSans-434"/>
     <use x="939.111328" xlink:href="#DejaVuSans-43a"/>
     <use x="999.511719" xlink:href="#DejaVuSans-430"/>
     <use x="1060.791016" xlink:href="#DejaVuSans-20"/>
     <use x="1092.578125" xlink:href="#DejaVuSans-52"/>
     <use x="1157.060547" xlink:href="#DejaVuSans-43"/>
     <use x="1226.884766" xlink:href="#DejaVuSans-2d"/>
     <use x="1262.96875" xlink:href="#DejaVuSans-446"/>
     <use x="1331.035156" xlink:href="#DejaVuSans-435"/>
     <use x="1392.558594" xlink:href="#DejaVuSans-43f"/>
     <use x="1457.939453" xlink:href="#DejaVuSans-438"/>
    </g>
   </g>
   <g id="legend_1">
    <g id="patch_7">
     <path d="M 948.878125 123.75625 
L 1029.8 123.75625 
Q 1031.8 123.75625 1031.8 121.75625 
L 1031.8 93.4 
Q 1031.8 91.4 1029.8 91.4 
L 948.878125 91.4 
Q 946.878125 91.4 946.878125 93.4 
L 946.878125 121.75625 
Q 946.878125 123.75625 948.878125 123.75625 
z
" style="fill:#ffffff;opacity:0.8;stroke:#cccccc;stroke-linejoin:miter;"/>
    </g>
    <g id="line2d_89">
     <path d="M 950.878125 99.498437 
L 970.878125 99.498437 
" style="fill:none;stroke:#0000ff;stroke-linecap:square;stroke-width:1.5;"/>
    </g>
    <g id="line2d_90"/>
    <g id="text_30">
     <!-- Зарядка -->
     <g transform="translate(978.878125 102.998437)scale(0.1 -0.1)">
      <use xlink:href="#DejaVuSans-417"/>
      <use x="64.111328" xlink:href="#DejaVuSans-430"/>
      <use x="125.390625" xlink:href="#DejaVuSans-440"/>
      <use x="188.867188" xlink:href="#DejaVuSans-44f"/>
      <use x="249.023438" xlink:href="#DejaVuSans-434"/>
      <use x="318.164062" xlink:href="#DejaVuSans-43a"/>
      <use x="378.564453" xlink:href="#DejaVuSans-430"/>
     </g>
    </g>
    <g id="line2d_91">
     <path d="M 950.878125 114.176562 
L 970.878125 114.176562 
" style="fill:none;stroke:#ff0000;stroke-linecap:square;stroke-width:1.5;"/>
    </g>
    <g id="line2d_92"/>
    <g id="text_31">
     <!-- Разрядка -->
     <g transform="translate(978.878125 117.676562)scale(0.1 -0.1)">
      <defs>
       <path d="M 1259 4147 
L 1259 2394 
L 2053 2394 
Q 2494 2394 2734 2622 
Q 2975 2850 2975 3272 
Q 2975 3691 2734 3919 
Q 2494 4147 2053 4147 
L 1259 4147 
z
M 628 4666 
L 2053 4666 
Q 2838 4666 3239 4311 
Q 3641 3956 3641 3272 
Q 3641 2581 3239 2228 
Q 2838 1875 2053 1875 
L 1259 1875 
L 1259 0 
L 628 0 
L 628 4666 
z
" id="DejaVuSans-420" transform="scale(0.015625)"/>
      </defs>
      <use xlink:href="#DejaVuSans-420"/>
      <use x="60.302734" xlink:href="#DejaVuSans-430"/>
      <use x="121.582031" xlink:href="#DejaVuSans-437"/>
      <use x="174.755859" xlink:href="#DejaVuSans-440"/>
      <use x="238.232422" xlink:href="#DejaVuSans-44f"/>
      <use x="298.388672" xlink:href="#DejaVuSans-434"/>
      <use x="367.529297" xlink:href="#DejaVuSans-43a"/>
      <use x="427.929688" xlink:href="#DejaVuSans-430"/>
     </g>
    </g>
   </g>
  </g>
 </g>
 <defs>
  <clipPath id="pfc425c706d">
   <rect height="554.4" width="892.8" x="144" y="86.4"/>
  </clipPath>
 </defs>
</svg>
